<?xml version="1.0" encoding="UTF-8"?>
<svg width="72px" height="16px" viewBox="0 0 72 16" version="1.1" xmlns="http://www.w3.org/2000/svg" xmlns:xlink="http://www.w3.org/1999/xlink">
    <!-- Generator: Sketch 63.1 (92452) - https://sketch.com -->
    <title>0.5</title>
    <desc>Created with Sketch.</desc>
    <defs>
        <polygon id="path-1" points="7.2 10.5 2.96794618 12.663119 3.77619654 8.08155948 0.352393083 4.83688104 5.08397309 4.16844052 7.2 0 9.31602691 4.16844052 14.0476069 4.83688104 10.6238035 8.08155948 11.4320538 12.663119"></polygon>
    </defs>
    <g id="0.5" stroke="none" stroke-width="1" fill="none" fill-rule="evenodd">
        <g id="icon/评价/展示-四星半备份" transform="translate(0.000000, 1.000000)">
            <g id="星-五星">
                <g id="矩形">
                    <mask id="mask-2" fill="white">
                        <use xlink:href="#path-1"></use>
                    </mask>
                    <use id="蒙版" fill="#FE6859" xlink:href="#path-1"></use>
                    <polygon fill="#DFC1AC" mask="url(#mask-2)" points="7.2 -4 17 -4 17 24 7.2 24"></polygon>
                </g>
                <polygon id="星形备份" fill="#DFC1AC" points="21.6 10.5 17.3679462 12.663119 18.1761965 8.08155948 14.7523931 4.83688104 19.4839731 4.16844052 21.6 0 23.7160269 4.16844052 28.4476069 4.83688104 25.0238035 8.08155948 25.8320538 12.663119"></polygon>
                <polygon id="星形备份-2" fill="#DFC1AC" points="36 10.5 31.7679462 12.663119 32.5761965 8.08155948 29.1523931 4.83688104 33.8839731 4.16844052 36 0 38.1160269 4.16844052 42.8476069 4.83688104 39.4238035 8.08155948 40.2320538 12.663119"></polygon>
                <polygon id="星形备份-3" fill="#DFC1AC" points="50.4 10.5 46.1679462 12.663119 46.9761965 8.08155948 43.5523931 4.83688104 48.2839731 4.16844052 50.4 0 52.5160269 4.16844052 57.2476069 4.83688104 53.8238035 8.08155948 54.6320538 12.663119"></polygon>
                <polygon id="星形备份-4" fill="#DFC1AC" points="64.8 10.5 60.5679462 12.663119 61.3761965 8.08155948 57.9523931 4.83688104 62.6839731 4.16844052 64.8 0 66.9160269 4.16844052 71.6476069 4.83688104 68.2238035 8.08155948 69.0320538 12.663119"></polygon>
            </g>
        </g>
    </g>
</svg>