<?xml version="1.0" encoding="UTF-8"?>
<svg width="72px" height="16px" viewBox="0 0 72 16" version="1.1" xmlns="http://www.w3.org/2000/svg" xmlns:xlink="http://www.w3.org/1999/xlink">
    <!-- Generator: Sketch 63.1 (92452) - https://sketch.com -->
    <title>金牌投顾</title>
    <desc>Created with Sketch.</desc>
    <g id="金牌投顾" stroke="none" stroke-width="1" fill="none" fill-rule="evenodd">
        <g id="投顾等级" transform="translate(2.000000, 0.000000)">
            <path d="M47,0.5 L8,0.5 C5.92893219,0.5 4.05393219,1.33946609 2.69669914,2.69669914 C1.33946609,4.05393219 0.5,5.92893219 0.5,8 L0.5,15.5 L47,15.5 C49.0710678,15.5 50.9460678,14.6605339 52.3033009,13.3033009 C53.6605339,11.9460678 54.5,10.0710678 54.5,8 C54.5,5.92893219 53.6605339,4.05393219 52.3033009,2.69669914 C50.9460678,1.33946609 49.0710678,0.5 47,0.5 Z" id="矩形" stroke="#FE6859"></path>
            <path d="M15.176,12.8803889 L15.332,11.6084444 L14.072,11.6084444 L14.888,10.3365 L12.836,10.3365 L12.02,11.6084444 L11.456,11.6084444 L11.672,9.94822222 L15.32,9.94822222 L15.476,8.67627778 L11.828,8.67627778 L11.936,7.79261111 L14.444,7.79261111 L14.504,7.28383333 L15.896,7.28383333 L14.276,3.72238889 L7.892,3.72238889 L8.132,4.03033333 L5.852,7.28383333 L7.208,7.28383333 L7.148,7.79261111 L9.656,7.79261111 L9.548,8.67627778 L5.9,8.67627778 L5.744,9.94822222 L9.392,9.94822222 L9.176,11.6084444 L8.708,11.6084444 L8.276,10.3365 L6.224,10.3365 L6.704,11.6084444 L5.3,11.6084444 L5.144,12.8803889 L15.176,12.8803889 Z M12.92,6.52066667 L9.008,6.52066667 L10.088,4.99433333 L12.236,4.99433333 L12.92,6.52066667 Z M22.652,10.0017778 L23.48,9.011 L26.408,9.011 L27.032,4.12405556 L25.196,4.12405556 L25.28,3.468 L23,3.468 L23.3,3.97677778 L23.276,4.12405556 L21.476,4.12405556 L20.852,9.011 L22.016,9.011 L21.152,10.0017778 L22.652,10.0017778 Z M17.648,13.108 L18.188,9.68044444 L18.704,9.68044444 L18.272,13.108 L19.712,13.108 L20.312,8.36833333 L18.404,8.36833333 L18.512,7.67211111 L20.684,7.67211111 L20.828,6.44033333 L20.504,6.44033333 L20.888,3.468 L19.58,3.468 L19.196,6.44033333 L18.704,6.44033333 L19.136,3.72238889 L17.264,3.72238889 L17.504,4.21777778 L16.088,13.108 L17.648,13.108 Z M25.28,6.10561111 L24.704,6.10561111 L24.824,5.20855556 L25.4,5.20855556 L25.28,6.10561111 Z M23.228,6.10561111 L22.7,6.10561111 L22.82,5.20855556 L23.348,5.20855556 L23.228,6.10561111 Z M25.064,7.87294444 L24.488,7.87294444 L24.596,7.02944444 L25.172,7.02944444 L25.064,7.87294444 Z M23.012,7.87294444 L22.484,7.87294444 L22.592,7.02944444 L23.12,7.02944444 L23.012,7.87294444 Z M24.728,13.0946111 L24.944,11.3674444 L26.336,11.3674444 L26.48,10.1758333 L25.1,10.1758333 L25.22,9.252 L23.456,9.252 L23.336,10.1758333 L20.504,10.1758333 L20.36,11.3674444 L23.18,11.3674444 L22.964,13.0946111 L24.728,13.0946111 Z M29.132,13.0946111 C29.356,13.0946111 29.558,13.0120463 29.738,12.8469167 C29.918,12.681787 30.024,12.4697963 30.056,12.2109444 L30.056,12.2109444 L30.428,9.252 L30.932,9.07794444 L31.112,7.65872222 L30.608,7.83277778 L30.812,6.26627778 L31.28,6.26627778 L31.448,4.99433333 L30.968,4.99433333 L31.16,3.48138889 L28.772,3.48138889 L29.072,3.86966667 L28.928,4.99433333 L28.148,4.99433333 L27.98,6.26627778 L28.772,6.26627778 L28.484,8.529 L27.668,8.79677778 L27.488,10.216 L28.304,9.94822222 L28.052,11.9565556 L27.116,13.0946111 L29.132,13.0946111 Z M33.488,7.31061111 L33.944,4.98094444 L35.708,4.98094444 L35.408,7.31061111 L37.832,7.31061111 L38.072,5.46294444 L37.664,5.97172222 L37.448,5.97172222 L37.736,3.72238889 L31.724,3.72238889 L32.096,4.20438889 L31.496,7.31061111 L33.488,7.31061111 Z M32.984,13.108 L33.92,12.3983889 L34.676,13.108 L37.208,13.108 L35.324,11.3272778 L37.304,9.82772222 L37.58,7.65872222 L31.496,7.65872222 L31.34,8.87711111 L35.216,8.87711111 L35.132,9.493 L34.16,10.2293889 L33.464,9.57333333 L33.5,9.22522222 L31.292,9.22522222 L31.22,9.82772222 L32.756,11.3005 L30.38,13.108 L32.984,13.108 Z M39.404,13.0812222 L40.688,5.00772222 L43.94,5.00772222 L44.096,3.709 L39.512,3.709 L38.06,13.0812222 L39.404,13.0812222 Z M44.672,10.4302222 L44.924,10.1088889 L45.344,6.78844444 L47.36,6.78844444 L46.94,10.1088889 L47.12,10.4302222 L48.2,10.4302222 L48.8,5.59683333 L47.024,5.59683333 L47.24,5.02111111 L49.064,5.02111111 L49.232,3.72238889 L44.408,3.72238889 L44.24,5.02111111 L45.764,5.02111111 L45.56,5.59683333 L44.18,5.59683333 L43.58,10.4302222 L44.672,10.4302222 Z M39.896,13.0812222 L43.088,12.1841667 L43.292,10.5775 L41.456,11.5147222 L42.068,6.66794444 L42.536,6.66794444 L42.212,9.22522222 L41.78,10.1356667 L42.716,10.1356667 C42.94,10.1356667 43.096,10.0932685 43.184,10.0084722 C43.272,9.92367593 43.332,9.75631481 43.364,9.50638889 L43.364,9.50638889 L43.88,5.46294444 L40.856,5.46294444 L39.896,13.0812222 Z M44.696,13.0812222 L45.776,11.4076111 L46.304,13.0812222 L48.092,13.0812222 L46.592,10.0821111 L46.952,7.25705556 L45.632,7.25705556 L45.284,10.0687222 L43.028,13.0812222 L44.696,13.0812222 Z" id="金牌投顾" fill="#FE6859" fill-rule="nonzero"></path>
        </g>
    </g>
</svg>